<svg width="18" height="18" viewBox="0 0 18 18" fill="none" xmlns="http://www.w3.org/2000/svg">
<path d="M16.8713 13.4407C16.573 13.4404 16.287 13.3218 16.0763 13.1107L10.3223 7.35671C10.1482 7.18255 9.94143 7.04439 9.71392 6.95013C9.4864 6.85587 9.24254 6.80736 8.99627 6.80736C8.75 6.80736 8.50614 6.85587 8.27863 6.95013C8.05111 7.04439 7.84439 7.18255 7.67027 7.35671L1.92377 13.1032C1.71159 13.3081 1.42742 13.4215 1.13245 13.419C0.837475 13.4164 0.555311 13.2981 0.346726 13.0895C0.138142 12.8809 0.0198271 12.5988 0.0172639 12.3038C0.0147007 12.0088 0.128094 11.7246 0.333022 11.5125L6.07502 5.76596C6.84922 4.99328 7.89834 4.55933 8.99215 4.55933C10.086 4.55933 11.1351 4.99328 11.9093 5.76596L17.667 11.52C17.8245 11.6773 17.9317 11.8778 17.9751 12.0961C18.0186 12.3144 17.9963 12.5407 17.9111 12.7463C17.8259 12.9519 17.6817 13.1277 17.4966 13.2513C17.3115 13.3749 17.0938 13.4408 16.8713 13.4407V13.4407Z" fill="white"/>
</svg>
