<svg width="18" height="18" viewBox="0 0 18 18" fill="none" xmlns="http://www.w3.org/2000/svg">
<path d="M13.4407 1.12875C13.4404 1.42701 13.3218 1.71297 13.1107 1.92375L7.35671 7.67775C7.18255 7.85186 7.04439 8.05858 6.95013 8.2861C6.85587 8.51362 6.80736 8.75747 6.80736 9.00374C6.80736 9.25001 6.85587 9.49387 6.95013 9.72139C7.04439 9.94891 7.18255 10.1556 7.35671 10.3297L13.1032 16.0762C13.3081 16.2884 13.4215 16.5726 13.419 16.8676C13.4164 17.1625 13.2981 17.4447 13.0895 17.6533C12.8809 17.8619 12.5988 17.9802 12.3038 17.9828C12.0088 17.9853 11.7246 17.8719 11.5125 17.667L5.76596 11.925C4.99328 11.1508 4.55933 10.1017 4.55933 9.00787C4.55933 7.91407 4.99328 6.86494 5.76596 6.09075L11.52 0.332995C11.6773 0.175558 11.8778 0.0683304 12.0961 0.0248798C12.3144 -0.0185707 12.5407 0.00370885 12.7463 0.0888995C12.9519 0.17409 13.1277 0.318363 13.2513 0.503462C13.3749 0.688561 13.4408 0.906167 13.4407 1.12875V1.12875Z" fill="white"/>
</svg>
