<svg width="18" height="18" viewBox="0 0 18 18" fill="none" xmlns="http://www.w3.org/2000/svg">
<path d="M4.55927 16.875C4.55953 16.5767 4.67823 16.2908 4.88927 16.08L10.6433 10.326C10.8174 10.1519 10.9556 9.94518 11.0498 9.71766C11.1441 9.49014 11.1926 9.24628 11.1926 9.00001C11.1926 8.75374 11.1441 8.50989 11.0498 8.28237C10.9556 8.05485 10.8174 7.84813 10.6433 7.67401L4.89677 1.92376C4.69184 1.71159 4.57844 1.42741 4.58101 1.13244C4.58357 0.837465 4.70189 0.555301 4.91047 0.346717C5.11905 0.138133 5.40122 0.0198177 5.69619 0.0172544C5.99116 0.0146912 6.27534 0.128085 6.48752 0.333013L12.234 6.07876C13.0067 6.85296 13.4406 7.90208 13.4406 8.99589C13.4406 10.0897 13.0067 11.1388 12.234 11.913L6.48002 17.667C6.32291 17.8242 6.12275 17.9314 5.9048 17.9749C5.68685 18.0185 5.46088 17.9966 5.25541 17.9118C5.04993 17.8271 4.87415 17.6834 4.75026 17.4989C4.62636 17.3144 4.5599 17.0973 4.55927 16.875V16.875Z" fill="white"/>
</svg>
