<svg width="16" height="16" viewBox="0 0 16 16" fill="none" xmlns="http://www.w3.org/2000/svg">
<g clip-path="url(#clip0_419_1191)">
<path d="M2.05742 7.12272C2.54019 3.84204 5.59105 1.57389 8.87173 2.05665C9.99103 2.22135 11.041 2.69895 11.9007 3.43442L11.1268 4.20834C10.8674 4.4678 10.8675 4.88844 11.127 5.14784C11.2515 5.27234 11.4204 5.34231 11.5965 5.34234H14.6431C15.01 5.34234 15.3074 5.04492 15.3074 4.67803V1.63143C15.3073 1.26454 15.0098 0.967182 14.6429 0.967245C14.4668 0.967276 14.2979 1.03725 14.1734 1.16175L13.3097 2.02536C10.0164 -0.910382 4.96663 -0.620468 2.03089 2.67292C0.990842 3.83964 0.31591 5.28586 0.0897083 6.8324C0.000522863 7.38069 0.372679 7.89746 0.920933 7.98664C0.970321 7.99468 1.02021 7.999 1.07025 7.99963C1.57186 7.99421 1.9929 7.62018 2.05742 7.12272Z" fill="white"/>
<path d="M14.9292 7.99948C14.4276 8.0049 14.0066 8.37892 13.9421 8.87639C13.4593 12.1571 10.4084 14.4252 7.12776 13.9425C6.00846 13.7778 4.95848 13.3002 4.09876 12.5647L4.87269 11.7908C5.13208 11.5313 5.13202 11.1107 4.87253 10.8513C4.748 10.7268 4.5791 10.6568 4.403 10.6568H1.35647C0.989573 10.6568 0.692154 10.9542 0.692154 11.3211V14.3677C0.692247 14.7346 0.989729 15.0319 1.35662 15.0319C1.53272 15.0318 1.70162 14.9619 1.82615 14.8374L2.68976 13.9738C5.98237 16.9098 11.0317 16.6208 13.9678 13.3282C15.0084 12.1612 15.6836 10.7145 15.9098 9.16739C15.9993 8.61917 15.6275 8.10215 15.0793 8.01259C15.0297 8.00446 14.9795 8.00007 14.9292 7.99948Z" fill="white"/>
</g>
<defs>
<clipPath id="clip0_419_1191">
<rect width="16" height="16" fill="white"/>
</clipPath>
</defs>
</svg>
