<svg width="18" height="18" viewBox="0 0 18 18" fill="none" xmlns="http://www.w3.org/2000/svg">
<path d="M1.12873 4.55929C1.427 4.55955 1.71295 4.67825 1.92373 4.88929L7.67773 10.6433C7.85185 10.8175 8.05857 10.9556 8.28608 11.0499C8.5136 11.1441 8.75746 11.1926 9.00373 11.1926C9.25 11.1926 9.49386 11.1441 9.72137 11.0499C9.94889 10.9556 10.1556 10.8175 10.3297 10.6433L16.0762 4.89679C16.2884 4.69186 16.5726 4.57847 16.8676 4.58103C17.1625 4.58359 17.4447 4.70191 17.6533 4.91049C17.8619 5.11908 17.9802 5.40124 17.9827 5.69621C17.9853 5.99118 17.8719 6.27536 17.667 6.48754L11.925 12.234C11.1508 13.0067 10.1017 13.4407 9.00785 13.4407C7.91405 13.4407 6.86493 13.0067 6.09073 12.234L0.33298 6.48004C0.175543 6.3227 0.0683152 6.1222 0.0248646 5.90391C-0.018586 5.68561 0.0036936 5.45933 0.0888842 5.2537C0.174075 5.04807 0.318348 4.87233 0.503447 4.74872C0.688546 4.62511 0.906152 4.55919 1.12873 4.55929Z" fill="white"/>
</svg>
