<svg width="16" height="16" viewBox="0 0 16 16" fill="none" xmlns="http://www.w3.org/2000/svg">
<g clip-path="url(#clip0_428_1207)">
<path d="M3.66667 14C3.22464 14 2.80072 13.8244 2.48816 13.5118C2.17559 13.1993 2 12.7754 2 12.3333V1C2 0.734784 1.89464 0.48043 1.70711 0.292893C1.51957 0.105357 1.26522 0 1 0V0C0.734784 0 0.48043 0.105357 0.292893 0.292893C0.105357 0.48043 0 0.734784 0 1L0 12.3333C0 13.3058 0.386308 14.2384 1.07394 14.9261C1.76158 15.6137 2.69421 16 3.66667 16H15C15.2652 16 15.5196 15.8946 15.7071 15.7071C15.8946 15.5196 16 15.2652 16 15C16 14.7348 15.8946 14.4804 15.7071 14.2929C15.5196 14.1054 15.2652 14 15 14H3.66667Z" fill="white"/>
<path d="M13 12C13.2652 12 13.5196 11.8946 13.7071 11.7071C13.8946 11.5196 14 11.2652 14 11V7C14 6.73478 13.8946 6.48043 13.7071 6.29289C13.5196 6.10536 13.2652 6 13 6C12.7348 6 12.4804 6.10536 12.2929 6.29289C12.1054 6.48043 12 6.73478 12 7V11C12 11.2652 12.1054 11.5196 12.2929 11.7071C12.4804 11.8946 12.7348 12 13 12Z" fill="white"/>
<path d="M5 12C5.26522 12 5.51957 11.8946 5.70711 11.7071C5.89464 11.5196 6 11.2652 6 11V7C6 6.73478 5.89464 6.48043 5.70711 6.29289C5.51957 6.10536 5.26522 6 5 6C4.73478 6 4.48043 6.10536 4.29289 6.29289C4.10536 6.48043 4 6.73478 4 7V11C4 11.2652 4.10536 11.5196 4.29289 11.7071C4.48043 11.8946 4.73478 12 5 12Z" fill="white"/>
<path d="M9 11.9996C9.26522 11.9996 9.51957 11.8942 9.70711 11.7067C9.89464 11.5192 10 11.2648 10 10.9996V3.66626C10 3.40104 9.89464 3.14669 9.70711 2.95915C9.51957 2.77162 9.26522 2.66626 9 2.66626C8.73478 2.66626 8.48043 2.77162 8.29289 2.95915C8.10536 3.14669 8 3.40104 8 3.66626V10.9996C8 11.2648 8.10536 11.5192 8.29289 11.7067C8.48043 11.8942 8.73478 11.9996 9 11.9996Z" fill="white"/>
</g>
<defs>
<clipPath id="clip0_428_1207">
<rect width="16" height="16" fill="white"/>
</clipPath>
</defs>
</svg>
