<svg width="18" height="18" viewBox="0 0 18 18" fill="none" xmlns="http://www.w3.org/2000/svg">
<g clip-path="url(#clip0_417_1277)">
<path d="M5.24988 18C5.15117 18.0006 5.05333 17.9816 4.96195 17.9443C4.87057 17.907 4.78746 17.852 4.71738 17.7825C4.64708 17.7128 4.59129 17.6298 4.55321 17.5384C4.51513 17.447 4.49553 17.349 4.49553 17.25C4.49553 17.151 4.51513 17.053 4.55321 16.9616C4.59129 16.8702 4.64708 16.7872 4.71738 16.7175L10.8449 10.59C11.2662 10.1681 11.5029 9.59626 11.5029 9.00001C11.5029 8.40376 11.2662 7.83188 10.8449 7.41001L4.71738 1.28252C4.57615 1.14129 4.49681 0.949742 4.49681 0.750016C4.49681 0.55029 4.57615 0.358744 4.71738 0.217517C4.85861 0.0762891 5.05015 -0.00305176 5.24988 -0.00305176C5.4496 -0.00305176 5.64115 0.0762891 5.78238 0.217517L11.9099 6.34501C12.2591 6.69335 12.5362 7.10717 12.7252 7.56276C12.9143 8.01834 13.0116 8.50675 13.0116 9.00001C13.0116 9.49326 12.9143 9.98167 12.7252 10.4373C12.5362 10.8928 12.2591 11.3067 11.9099 11.655L5.78238 17.7825C5.7123 17.852 5.62919 17.907 5.53781 17.9443C5.44643 17.9816 5.34858 18.0006 5.24988 18Z" fill="white"/>
</g>
<defs>
<clipPath id="clip0_417_1277">
<rect width="18" height="18" fill="white"/>
</clipPath>
</defs>
</svg>
