<svg width="23" height="24" viewBox="0 0 23 24" fill="none" xmlns="http://www.w3.org/2000/svg">
<g clip-path="url(#clip0_416_1197)">
<path d="M20.125 23.0245H18.2083V18.1916C18.2076 17.4403 17.9088 16.7199 17.3775 16.1887C16.8462 15.6574 16.1259 15.3586 15.3745 15.3578H7.62546C6.87412 15.3586 6.15378 15.6574 5.62251 16.1887C5.09123 16.7199 4.79243 17.4403 4.79167 18.1916V23.0245H2.875V18.1916C2.87652 16.9322 3.3775 15.7248 4.26806 14.8342C5.15861 13.9437 6.36603 13.4427 7.62546 13.4412H15.3745C16.634 13.4427 17.8414 13.9437 18.7319 14.8342C19.6225 15.7248 20.1235 16.9322 20.125 18.1916V23.0245Z" fill="white"/>
<path d="M11.4999 11.5239C10.3627 11.5239 9.251 11.1866 8.30541 10.5548C7.35983 9.923 6.62284 9.02497 6.18763 7.9743C5.75243 6.92362 5.63856 5.76749 5.86043 4.6521C6.08229 3.53671 6.62993 2.51216 7.43408 1.708C8.23823 0.903851 9.26278 0.356217 10.3782 0.134352C11.4936 -0.087513 12.6497 0.0263561 13.7004 0.46156C14.751 0.896764 15.6491 1.63376 16.2809 2.57934C16.9127 3.52492 17.2499 4.63662 17.2499 5.77387C17.2484 7.2984 16.6421 8.76005 15.5641 9.83805C14.4861 10.9161 13.0245 11.5223 11.4999 11.5239V11.5239ZM11.4999 1.94053C10.7418 1.94053 10.0006 2.16536 9.37026 2.58657C8.73987 3.00778 8.24854 3.60646 7.9584 4.30691C7.66827 5.00736 7.59235 5.77812 7.74026 6.52171C7.88817 7.26531 8.25326 7.94834 8.78937 8.48444C9.32547 9.02054 10.0085 9.38563 10.7521 9.53354C11.4957 9.68145 12.2664 9.60554 12.9669 9.31541C13.6673 9.02527 14.266 8.53394 14.6872 7.90355C15.1085 7.27316 15.3333 6.53203 15.3333 5.77387C15.3333 4.7572 14.9294 3.78218 14.2105 3.06329C13.4916 2.3444 12.5166 1.94053 11.4999 1.94053Z" fill="white"/>
</g>
<defs>
<clipPath id="clip0_416_1197">
<rect width="23" height="23" fill="white" transform="translate(0 0.0239258)"/>
</clipPath>
</defs>
</svg>
