<svg width="14" height="14" viewBox="0 0 14 14" fill="none" xmlns="http://www.w3.org/2000/svg">
<path d="M13.2803 9.86133L13.2715 1.03711C13.2715 0.421875 12.8672 0 12.2344 0H3.40137C2.80371 0 2.39062 0.448242 2.39062 0.975586C2.39062 1.49414 2.83887 1.9248 3.375 1.9248H6.53027L10.2568 1.80176L8.65723 3.20801L0.316406 11.5576C0.114258 11.7686 0 12.0146 0 12.2607C0 12.7793 0.474609 13.2715 1.01074 13.2715C1.25684 13.2715 1.50293 13.166 1.71387 12.9639L10.0635 4.61426L11.4873 3.01465L11.3379 6.58301V9.8877C11.3379 10.4326 11.7686 10.8896 12.3047 10.8896C12.832 10.8896 13.2803 10.4414 13.2803 9.86133Z" fill="white"/>
</svg>
