<svg width="21" height="21" viewBox="0 0 21 21" fill="none" xmlns="http://www.w3.org/2000/svg">
<g clip-path="url(#clip0_417_1204)">
<path d="M20.2557 18.602L15.2815 13.6278C16.637 11.97 17.3035 9.85458 17.143 7.71914C16.9826 5.5837 16.0075 3.59162 14.4195 2.15494C12.8314 0.718266 10.752 -0.0530828 8.61119 0.000443747C6.47039 0.0539703 4.43207 0.928277 2.91783 2.44252C1.40359 3.95676 0.529282 5.99508 0.475755 8.13588C0.422229 10.2767 1.19358 12.3561 2.63025 13.9442C4.06693 15.5322 6.05901 16.5073 8.19445 16.6677C10.3299 16.8282 12.4453 16.1617 14.1032 14.8062L19.0773 19.7803C19.2345 19.9321 19.445 20.0161 19.6635 20.0142C19.882 20.0123 20.091 19.9247 20.2455 19.7702C20.4 19.6157 20.4877 19.4067 20.4895 19.1882C20.4914 18.9697 20.4075 18.7592 20.2557 18.602ZM8.83315 15.0245C7.51461 15.0245 6.22568 14.6335 5.12935 13.901C4.03302 13.1684 3.17854 12.1272 2.67395 10.9091C2.16937 9.69089 2.03735 8.35045 2.29458 7.05724C2.55182 5.76403 3.18676 4.57615 4.11911 3.6438C5.05146 2.71145 6.23934 2.07651 7.53255 1.81927C8.82576 1.56204 10.1662 1.69406 11.3844 2.19864C12.6025 2.70323 13.6437 3.55771 14.3763 4.65404C15.1088 5.75037 15.4998 7.0393 15.4998 8.35784C15.4978 10.1253 14.7948 11.8199 13.545 13.0697C12.2952 14.3195 10.6007 15.0225 8.83315 15.0245Z" fill="white"/>
</g>
<defs>
<clipPath id="clip0_417_1204">
<rect width="20" height="20" fill="white" transform="translate(0.5 0.0239258)"/>
</clipPath>
</defs>
</svg>
