<svg width="21" height="22" viewBox="0 0 21 22" fill="none" xmlns="http://www.w3.org/2000/svg">
<g clip-path="url(#clip0_417_1197)">
<path d="M10.5 0.0239258C7.91482 0.0257689 5.42161 0.98347 3.5 2.7128V0.898926C3.5 0.666861 3.40781 0.444302 3.24372 0.280207C3.07962 0.116113 2.85706 0.0239258 2.625 0.0239258C2.39294 0.0239258 2.17038 0.116113 2.00628 0.280207C1.84219 0.444302 1.75 0.666861 1.75 0.898926V3.52393C1.75 4.22012 2.02656 4.8878 2.51885 5.38008C3.01113 5.87236 3.67881 6.14893 4.375 6.14893H7C7.23207 6.14893 7.45462 6.05674 7.61872 5.89264C7.78281 5.72855 7.875 5.50599 7.875 5.27393C7.875 5.04186 7.78281 4.8193 7.61872 4.65521C7.45462 4.49111 7.23207 4.39893 7 4.39893H4.375C4.34549 4.39455 4.31627 4.38842 4.2875 4.38055C5.71333 2.94452 7.59336 2.04787 9.60668 1.84363C11.62 1.6394 13.6418 2.14025 15.327 3.26069C17.0121 4.38113 18.2562 6.05171 18.8468 7.98726C19.4374 9.92281 19.3379 12.0033 18.5654 13.8737C17.7928 15.7441 16.3951 17.2884 14.6107 18.243C12.8263 19.1975 10.766 19.5032 8.78134 19.1079C6.79668 18.7125 5.01076 17.6406 3.72842 16.0751C2.44609 14.5096 1.74682 12.5476 1.75 10.5239C1.75 10.2919 1.65781 10.0693 1.49372 9.90521C1.32962 9.74111 1.10706 9.64893 0.875 9.64893C0.642936 9.64893 0.420376 9.74111 0.256282 9.90521C0.0921873 10.0693 0 10.2919 0 10.5239C0 12.6006 0.615814 14.6307 1.76957 16.3574C2.92332 18.0841 4.5632 19.4299 6.48182 20.2247C8.40045 21.0194 10.5116 21.2273 12.5484 20.8222C14.5853 20.417 16.4562 19.417 17.9246 17.9485C19.3931 16.4801 20.3931 14.6092 20.7982 12.5724C21.2034 10.5356 20.9955 8.42437 20.2007 6.50575C19.406 4.58713 18.0602 2.94725 16.3335 1.7935C14.6068 0.63974 12.5767 0.0239258 10.5 0.0239258V0.0239258Z" fill="white"/>
<path d="M10.4999 5.27393C10.2679 5.27393 10.0453 5.36611 9.88122 5.53021C9.71713 5.6943 9.62494 5.91686 9.62494 6.14893V10.5239C9.62499 10.756 9.71721 10.9785 9.88131 11.1426L12.5063 13.7676C12.6713 13.9269 12.8924 14.0151 13.1218 14.0131C13.3512 14.0111 13.5707 13.9191 13.7329 13.7569C13.8951 13.5947 13.9872 13.3752 13.9892 13.1458C13.9911 12.9164 13.903 12.6953 13.7436 12.5303L11.3749 10.1617V6.14893C11.3749 5.91686 11.2828 5.6943 11.1187 5.53021C10.9546 5.36611 10.732 5.27393 10.4999 5.27393Z" fill="white"/>
</g>
<defs>
<clipPath id="clip0_417_1197">
<rect width="21" height="21" fill="white" transform="translate(0 0.0239258)"/>
</clipPath>
</defs>
</svg>
