<svg width="16" height="16" viewBox="0 0 16 16" fill="none" xmlns="http://www.w3.org/2000/svg">
<g clip-path="url(#clip0_419_1201)">
<path d="M8.00015 1.3333C8.88448 1.3362 9.75947 1.51446 10.5745 1.85776C11.3894 2.20106 12.1283 2.70258 12.7481 3.3333H10.6668C10.49 3.3333 10.3204 3.40354 10.1954 3.52857C10.0704 3.65359 10.0001 3.82316 10.0001 3.99997C10.0001 4.17678 10.0704 4.34635 10.1954 4.47137C10.3204 4.5964 10.49 4.66664 10.6668 4.66664H13.4288C13.7571 4.66646 14.0719 4.53597 14.304 4.30384C14.5361 4.07171 14.6666 3.75692 14.6668 3.42864V0.666637C14.6668 0.489826 14.5966 0.320257 14.4716 0.195232C14.3465 0.0702083 14.177 -2.96469e-05 14.0001 -2.96469e-05V-2.96469e-05C13.8233 -2.96469e-05 13.6538 0.0702083 13.5287 0.195232C13.4037 0.320257 13.3335 0.489826 13.3335 0.666637V2.05197C12.2316 1.05961 10.8752 0.393577 9.41621 0.12847C7.95722 -0.136637 6.45323 0.00964498 5.07267 0.550935C3.69211 1.09223 2.48949 2.00715 1.59949 3.19325C0.709483 4.37935 0.16724 5.7898 0.0334785 7.26664C0.0248674 7.35947 0.035689 7.45309 0.0652538 7.54151C0.0948186 7.62994 0.142478 7.71124 0.205196 7.78023C0.267914 7.84922 0.344315 7.90438 0.429531 7.94222C0.514746 7.98005 0.606909 7.99972 0.700145 7.99997V7.99997C0.863204 8.00205 1.02117 7.9432 1.14312 7.83493C1.26507 7.72667 1.34222 7.57679 1.35948 7.41464C1.50789 5.75514 2.27146 4.2111 3.5002 3.08586C4.72894 1.96062 6.33402 1.3355 8.00015 1.3333Z" fill="white"/>
<path d="M15.3008 8.00014C15.1377 7.99807 14.9797 8.05692 14.8578 8.16518C14.7358 8.27344 14.6587 8.42332 14.6414 8.58548C14.5312 9.85431 14.0594 11.0649 13.2819 12.0736C12.5044 13.0824 11.4538 13.8469 10.2549 14.2765C9.05592 14.7062 7.7589 14.7829 6.51767 14.4976C5.27644 14.2122 4.1431 13.5769 3.2521 12.6668H5.33344C5.51025 12.6668 5.67982 12.5966 5.80484 12.4716C5.92986 12.3465 6.0001 12.177 6.0001 12.0002C6.0001 11.8233 5.92986 11.6538 5.80484 11.5287C5.67982 11.4037 5.51025 11.3335 5.33344 11.3335H2.57144C2.40883 11.3334 2.24781 11.3654 2.09757 11.4275C1.94733 11.4897 1.81082 11.5809 1.69584 11.6959C1.58087 11.8109 1.48968 11.9474 1.42749 12.0976C1.36531 12.2479 1.33335 12.4089 1.33344 12.5715V15.3335C1.33344 15.5103 1.40367 15.6799 1.5287 15.8049C1.65372 15.9299 1.82329 16.0002 2.0001 16.0002C2.17691 16.0002 2.34648 15.9299 2.47151 15.8049C2.59653 15.6799 2.66677 15.5103 2.66677 15.3335V13.9482C3.76866 14.9405 5.12504 15.6066 6.58404 15.8717C8.04303 16.1368 9.54702 15.9905 10.9276 15.4492C12.3081 14.9079 13.5108 13.993 14.4008 12.8069C15.2908 11.6208 15.833 10.2103 15.9668 8.73348C15.9754 8.64064 15.9646 8.54703 15.935 8.4586C15.9054 8.37018 15.8578 8.28888 15.7951 8.21989C15.7323 8.1509 15.6559 8.09573 15.5707 8.0579C15.4855 8.02006 15.3933 8.00039 15.3001 8.00014H15.3008Z" fill="white"/>
</g>
<defs>
<clipPath id="clip0_419_1201">
<rect width="16" height="16" fill="white"/>
</clipPath>
</defs>
</svg>
