<svg width="24" height="19" viewBox="0 0 24 19" fill="none" xmlns="http://www.w3.org/2000/svg">
<path d="M3.24609 15.6309H20.7451C22.3447 15.6309 23.1797 14.8223 23.1797 13.1963V3.05371C23.1797 1.42773 22.3447 0.619141 20.7451 0.619141H3.24609C1.64648 0.619141 0.811523 1.42773 0.811523 3.05371V13.1963C0.811523 14.8223 1.64648 15.6309 3.24609 15.6309ZM3.36035 13.9258C2.78027 13.9258 2.5166 13.6885 2.5166 13.0908V3.15918C2.5166 2.56152 2.78027 2.32422 3.36035 2.32422H20.6309C21.2109 2.32422 21.4746 2.56152 21.4746 3.15918V13.0908C21.4746 13.6885 21.2109 13.9258 20.6309 13.9258H3.36035ZM7.5 18.707H16.4912C16.9307 18.707 17.291 18.3467 17.291 17.9072C17.291 17.4678 16.9307 17.0986 16.4912 17.0986H7.5C7.06055 17.0986 6.7002 17.4678 6.7002 17.9072C6.7002 18.3467 7.06055 18.707 7.5 18.707Z" fill="white"/>
</svg>
