<svg width="14" height="14" viewBox="0 0 14 14" fill="none" xmlns="http://www.w3.org/2000/svg">
<path d="M7.00826 14C7.54647 14 7.86266 13.6838 7.86266 13.1321C7.86266 13.0447 7.85593 12.937 7.8492 12.8361L7.70793 8.20086L11.5763 10.5959C11.7915 10.7439 12.0135 10.8111 12.249 10.8111C12.7401 10.8111 13.09 10.4411 13.09 9.9433C13.09 9.5531 12.9218 9.30418 12.5248 9.10908L8.39413 7.00336L12.5248 4.89092C12.9218 4.69582 13.09 4.4469 13.09 4.06343C13.09 3.55887 12.7401 3.19558 12.249 3.19558C12.0135 3.19558 11.7915 3.26285 11.5763 3.41086L7.70793 5.79914L7.8492 1.17059C7.85593 1.06295 7.86266 0.962038 7.86266 0.87458C7.86266 0.322922 7.54647 0 7.00826 0C6.46333 0 6.14714 0.322922 6.14714 0.87458C6.14714 0.962038 6.15387 1.06295 6.16059 1.17059L6.30187 5.79914L2.43354 3.41086C2.21153 3.26285 1.99625 3.19558 1.76079 3.19558C1.26968 3.19558 0.913116 3.55887 0.913116 4.06343C0.913116 4.4469 1.0813 4.69582 1.48496 4.89092L5.61566 7.00336L1.48496 9.10908C1.0813 9.30418 0.913116 9.55983 0.913116 9.9433C0.913116 10.4411 1.26968 10.8111 1.76079 10.8111C1.99625 10.8111 2.21153 10.7439 2.43354 10.5959L6.30187 8.20086L6.16059 12.8361C6.15387 12.937 6.14714 13.0447 6.14714 13.1321C6.14714 13.6838 6.46333 14 7.00826 14Z" fill="white"/>
</svg>
