<svg width="10" height="7" viewBox="0 0 10 7" fill="none" xmlns="http://www.w3.org/2000/svg">
<path d="M4.82019 6.08991C4.99776 6.08484 5.14995 6.01889 5.28693 5.88191L9.1477 1.9349C9.25931 1.81821 9.32019 1.68123 9.32019 1.51382C9.32019 1.17391 9.05638 0.910095 8.71647 0.910095C8.55413 0.910095 8.40193 0.976048 8.28524 1.09273L4.82019 4.64403L1.35514 1.09273C1.23845 0.976048 1.09133 0.910095 0.923911 0.910095C0.584002 0.910095 0.32019 1.17391 0.32019 1.51382C0.32019 1.67616 0.38107 1.81821 0.492682 1.9349L4.35852 5.88191C4.49043 6.02396 4.64263 6.08991 4.82019 6.08991Z" fill="white" fill-opacity="0.48"/>
</svg>
