<svg width="11" height="12" viewBox="0 0 11 12" fill="none" xmlns="http://www.w3.org/2000/svg">
<path d="M0.263278 9.93262C-0.0769285 10.2728 -0.0931288 10.8803 0.271378 11.2286C0.619684 11.5932 1.2353 11.577 1.5755 11.2367L5.50407 7.30817L9.43264 11.2367C9.78095 11.5851 10.3804 11.5932 10.7287 11.2286C11.0932 10.8803 11.0851 10.2728 10.7368 9.92452L6.8082 5.99595L10.7368 2.07548C11.0851 1.71907 11.0932 1.11966 10.7287 0.771355C10.3804 0.406848 9.78095 0.414948 9.43264 0.763255L5.50407 4.69183L1.5755 0.763255C1.2353 0.423049 0.619684 0.406848 0.271378 0.771355C-0.0931288 1.11966 -0.0769285 1.72717 0.263278 2.06738L4.19185 5.99595L0.263278 9.93262Z" fill="white"/>
</svg>
