<svg width="6" height="10" viewBox="0 0 6 10" fill="none" xmlns="http://www.w3.org/2000/svg">
<g opacity="0.3">
<path d="M0.999517 1.99903C1.54761 1.99903 2 1.54664 2 0.999517C2 0.452392 1.54664 0 0.99855 0C0.451426 0 0 0.452392 0 0.999517C0 1.54664 0.452392 1.99903 0.999517 1.99903Z" fill="#D9D9D9"/>
<path d="M4.99952 1.99903C5.54761 1.99903 6 1.54664 6 0.999517C6 0.452392 5.54664 0 4.99855 0C4.45143 0 4 0.452392 4 0.999517C4 1.54664 4.45239 1.99903 4.99952 1.99903Z" fill="#D9D9D9"/>
<path d="M0.999517 5.99806C1.54761 5.99806 2 5.54566 2 4.99854C2 4.45142 1.54664 3.99902 0.99855 3.99902C0.451426 3.99902 0 4.45142 0 4.99854C0 5.54566 0.452392 5.99806 0.999517 5.99806Z" fill="#D9D9D9"/>
<path d="M4.99952 5.99806C5.54761 5.99806 6 5.54566 6 4.99854C6 4.45142 5.54664 3.99902 4.99855 3.99902C4.45143 3.99902 4 4.45142 4 4.99854C4 5.54566 4.45239 5.99806 4.99952 5.99806Z" fill="#D9D9D9"/>
<path d="M0.999517 9.99711C1.54761 9.99711 2 9.54472 2 8.99759C2 8.45047 1.54664 7.99808 0.99855 7.99808C0.451426 7.99808 0 8.45047 0 8.99759C0 9.54472 0.452392 9.99711 0.999517 9.99711Z" fill="#D9D9D9"/>
<path d="M4.99952 9.99711C5.54761 9.99711 6 9.54472 6 8.99759C6 8.45047 5.54664 7.99808 4.99855 7.99808C4.45143 7.99808 4 8.45047 4 8.99759C4 9.54472 4.45239 9.99711 4.99952 9.99711Z" fill="#D9D9D9"/>
</g>
</svg>
