<svg width="14" height="15" viewBox="0 0 14 15" fill="none" xmlns="http://www.w3.org/2000/svg">
<path d="M5.77766 11.5553C6.94494 11.5553 8.0388 11.2029 8.94913 10.6009L12.1647 13.8238C12.3776 14.0294 12.6492 14.1321 12.9428 14.1321C13.5522 14.1321 14 13.655 14 13.053C14 12.774 13.9046 12.5024 13.699 12.2968L10.5055 9.08862C11.1662 8.14893 11.5553 7.01101 11.5553 5.77766C11.5553 2.59885 8.95648 0 5.77766 0C2.60619 0 0 2.59885 0 5.77766C0 8.95648 2.59885 11.5553 5.77766 11.5553ZM5.77766 10.0136C3.45045 10.0136 1.54169 8.10488 1.54169 5.77766C1.54169 3.45045 3.45045 1.54169 5.77766 1.54169C8.10488 1.54169 10.0136 3.45045 10.0136 5.77766C10.0136 8.10488 8.10488 10.0136 5.77766 10.0136Z" fill="white" fill-opacity="0.15"/>
</svg>
